<svg xmlns="http://www.w3.org/2000/svg" viewBox="0 0 37.08 29.63"><defs><style>.cls-1{fill:#f22613;}.cls-2{fill:#f55142;}.cls-3{fill:#fff;}.cls-4{fill:none;stroke:#fff;stroke-linecap:round;stroke-miterlimit:10;}.cls-5{fill:#ffb350;}.cls-6{fill:#ff950e;}</style></defs><g id="katman_2" data-name="katman 2"><g id="Layer_1" data-name="Layer 1"><rect class="cls-1" x="19.33" y="0.5" width="2" height="5.13"/><circle class="cls-2" cx="20.33" cy="17.13" r="12.5"/><path class="cls-1" d="M20.33,29.63a12.5,12.5,0,0,0,0-25Z"/><circle class="cls-3" cx="20.33" cy="17.13" r="1.5"/><line class="cls-4" x1="20.33" y1="17.13" x2="13.7" y2="23.75"/><path class="cls-4" d="M20.33,7.75a9.38,9.38,0,1,1-4.62,17.53"/><rect class="cls-2" x="16.27" width="8.12" height="3" rx="1"/><path class="cls-1" d="M23.39,3H20.33V0h3.06a1,1,0,0,1,1,1V2A1,1,0,0,1,23.39,3Z"/><path class="cls-2" d="M12.42,24.62H4.86c-.5,0-.9-.67-.9-1.5s.4-1.5.9-1.5h7.56c.5,0,.91.68.91,1.5S12.92,24.62,12.42,24.62Z"/><path class="cls-2" d="M12.41,18.62H.92C.41,18.62,0,18,0,17.12s.41-1.5.92-1.5H12.41c.51,0,.92.68.92,1.5S12.92,18.62,12.41,18.62Z"/><path class="cls-2" d="M11.83,12.62H8.2a1.5,1.5,0,1,1,0-3h3.63a1.5,1.5,0,0,1,0,3Z"/><path class="cls-2" d="M5,12.62h-3c-.58,0-1-.67-1-1.5s.47-1.5,1-1.5H5c.58,0,1,.68,1,1.5S5.61,12.62,5,12.62Z"/><circle class="cls-5" cx="30.83" cy="9.33" r="6.25"/><polygon class="cls-3" points="33.14 8.22 31.23 8.59 31.6 4.71 28.52 10.44 30.43 10.07 30.06 13.94 33.14 8.22"/><path class="cls-6" d="M30.06,13.94l.37-3.87-1.91.37,1-1.8a12.29,12.29,0,0,0-3.84-2.81,6.14,6.14,0,0,0-1,2.44,9.88,9.88,0,0,1,5.38,7.26,6.64,6.64,0,0,0,.77.05,6.28,6.28,0,0,0,1.85-.28,12.43,12.43,0,0,0-1.25-3.91Z"/><path class="cls-6" d="M24.58,9.34a6.25,6.25,0,0,0,4.44,6A8.91,8.91,0,0,0,24.58,9.34Z"/><path class="cls-5" d="M24.58,9.34a8.91,8.91,0,0,1,4.44,6,6.84,6.84,0,0,0,1,.22,9.88,9.88,0,0,0-5.38-7.26,6.24,6.24,0,0,0-.1,1.06Z"/></g></g></svg>